<?xml version="1.0" encoding="UTF-8" standalone="no"?>
<!-- Created with Inkscape (http://www.inkscape.org/) -->

<svg
   xmlns:dc="http://purl.org/dc/elements/1.1/"
   xmlns:cc="http://creativecommons.org/ns#"
   xmlns:rdf="http://www.w3.org/1999/02/22-rdf-syntax-ns#"
   xmlns:svg="http://www.w3.org/2000/svg"
   xmlns="http://www.w3.org/2000/svg"
   xmlns:sodipodi="http://sodipodi.sourceforge.net/DTD/sodipodi-0.dtd"
   xmlns:inkscape="http://www.inkscape.org/namespaces/inkscape"
   width="100mm"
   height="100mm"
   viewBox="0 0 100 100"
   version="1.1"
   id="svg8"
   inkscape:version="0.92.1 r"
   sodipodi:docname="gpx.svg">
  <defs
     id="defs2" />
  <sodipodi:namedview
     id="base"
     pagecolor="#ffffff"
     bordercolor="#666666"
     borderopacity="1.0"
     inkscape:pageopacity="0.0"
     inkscape:pageshadow="2"
     inkscape:zoom="0.7"
     inkscape:cx="-290.2901"
     inkscape:cy="124.10497"
     inkscape:document-units="mm"
     inkscape:current-layer="layer1"
     showgrid="false" />
  <metadata
     id="metadata5">
    <rdf:RDF>
      <cc:Work
         rdf:about="">
        <dc:format>image/svg+xml</dc:format>
        <dc:type
           rdf:resource="http://purl.org/dc/dcmitype/StillImage" />
        <dc:title></dc:title>
      </cc:Work>
    </rdf:RDF>
  </metadata>
  <g
     inkscape:label="Ebene 1"
     inkscape:groupmode="layer"
     id="layer1"
     transform="translate(0,-197)">
    <g
       aria-label="GPX"
       style="font-style:normal;font-variant:normal;font-weight:normal;font-stretch:normal;font-size:9.199893px;line-height:2.78296781px;font-family:Arial;-inkscape-font-specification:Arial;letter-spacing:0px;word-spacing:0px;fill:#000000;fill-opacity:1;stroke:none;stroke-width:0.26458332px;stroke-linecap:butt;stroke-linejoin:miter;stroke-opacity:1"
       id="text5094">
      <path
         d="m 31.025223,260.68124 q -3.104964,1.50935 -6.447113,2.26403 -3.342148,0.75468 -6.899919,0.75468 -8.0427188,0 -12.7432889,-4.48495 -4.70057019,-4.50651 -4.70057019,-12.20423 0,-7.78397 4.78681919,-12.24736 4.7868191,-4.46338 13.1098469,-4.46338 3.212775,0 6.145241,0.60374 2.954028,0.60374 5.56306,1.78967 v 6.66273 q -2.695281,-1.53092 -5.369,-2.2856 -2.652156,-0.75467 -5.325875,-0.75467 -4.959317,0 -7.654598,2.78153 -2.6737192,2.75996 -2.6737192,7.91334 0,5.11025 2.5874702,7.89178 2.587469,2.78153 7.352726,2.78153 1.293735,0 2.39341,-0.15093 1.121237,-0.1725 2.005289,-0.5175 v -6.25305 h -5.067128 v -5.56306 h 12.937349 z"
         style="font-style:normal;font-variant:normal;font-weight:bold;font-stretch:normal;font-size:44.15948486px;font-family:'DejaVu Sans';-inkscape-font-specification:'DejaVu Sans Bold';stroke-width:0.26458332px"
         id="path5109" />
      <path
         d="m 38.313264,230.88221 h 13.778277 q 6.145241,0 9.422702,2.7384 3.299024,2.71685 3.299024,7.76241 0,5.06713 -3.299024,7.80554 -3.277461,2.71684 -9.422702,2.71684 H 46.61473 v 11.16925 h -8.301466 z m 8.301466,6.01587 v 8.99145 h 4.592759 q 2.414972,0 3.730269,-1.16436 1.315297,-1.18592 1.315297,-3.34215 0,-2.15622 -1.315297,-3.32058 -1.315297,-1.16436 -3.730269,-1.16436 z"
         style="font-style:normal;font-variant:normal;font-weight:bold;font-stretch:normal;font-size:44.15948486px;font-family:'DejaVu Sans';-inkscape-font-specification:'DejaVu Sans Bold';stroke-width:0.26458332px"
         id="path5111" />
      <path
         d="m 88.596423,246.64421 11.169245,16.43044 h -8.646462 l -7.525224,-10.99675 -7.460538,10.99675 h -8.689586 l 11.169244,-16.43044 -10.737999,-15.762 h 8.668023 l 7.050856,10.37144 7.029293,-10.37144 h 8.711148 z"
         style="font-style:normal;font-variant:normal;font-weight:bold;font-stretch:normal;font-size:44.15948486px;font-family:'DejaVu Sans';-inkscape-font-specification:'DejaVu Sans Bold';stroke-width:0.26458332px"
         id="path5113" />
    </g>
  </g>
</svg>
